<mxfile host="app.diagrams.net" modified="2021-07-15T12:01:13.367Z" agent="5.0 (Windows NT 6.2; Win64; x64) AppleWebKit/537.36 (KHTML, like Gecko) Chrome/83.0.4103.61 Safari/537.36" etag="d7HPZHGY2CYp9TTb5eYV" version="14.8.6" type="github">
  <diagram id="m5OsKufubtWg9PYXpigb" name="Page-1">
    <mxGraphModel dx="1857" dy="491" grid="1" gridSize="10" guides="1" tooltips="1" connect="1" arrows="1" fold="1" page="1" pageScale="1" pageWidth="827" pageHeight="1169" math="0" shadow="0">
      <root>
        <mxCell id="0" />
        <mxCell id="1" parent="0" />
        <mxCell id="aSY6GiX8y2zgrVZKX64a-7" style="edgeStyle=orthogonalEdgeStyle;rounded=0;orthogonalLoop=1;jettySize=auto;html=1;entryX=0.5;entryY=0;entryDx=0;entryDy=0;" parent="1" source="aSY6GiX8y2zgrVZKX64a-1" target="aSY6GiX8y2zgrVZKX64a-5" edge="1">
          <mxGeometry relative="1" as="geometry" />
        </mxCell>
        <mxCell id="aSY6GiX8y2zgrVZKX64a-1" value="开始拍摄身份证正反两面" style="rounded=1;whiteSpace=wrap;html=1;" parent="1" vertex="1">
          <mxGeometry x="175" y="320" width="120" height="60" as="geometry" />
        </mxCell>
        <mxCell id="aSY6GiX8y2zgrVZKX64a-6" style="edgeStyle=orthogonalEdgeStyle;rounded=0;orthogonalLoop=1;jettySize=auto;html=1;startArrow=none;" parent="1" source="-PtaE-Mu1wmv-w4eBili-2" target="aSY6GiX8y2zgrVZKX64a-1" edge="1">
          <mxGeometry relative="1" as="geometry" />
        </mxCell>
        <mxCell id="aSY6GiX8y2zgrVZKX64a-2" value="完成/跳过&lt;br&gt;邀请码流程" style="ellipse;whiteSpace=wrap;html=1;" parent="1" vertex="1">
          <mxGeometry x="200" y="100" width="70" height="60" as="geometry" />
        </mxCell>
        <mxCell id="aSY6GiX8y2zgrVZKX64a-9" style="edgeStyle=orthogonalEdgeStyle;rounded=0;orthogonalLoop=1;jettySize=auto;html=1;entryX=1;entryY=0.5;entryDx=0;entryDy=0;" parent="1" source="aSY6GiX8y2zgrVZKX64a-4" target="aSY6GiX8y2zgrVZKX64a-1" edge="1">
          <mxGeometry relative="1" as="geometry">
            <Array as="points">
              <mxPoint x="345" y="530" />
              <mxPoint x="345" y="350" />
            </Array>
          </mxGeometry>
        </mxCell>
        <mxCell id="aSY6GiX8y2zgrVZKX64a-10" value="校验不通过，重新拍摄" style="edgeLabel;html=1;align=center;verticalAlign=middle;resizable=0;points=[];" parent="aSY6GiX8y2zgrVZKX64a-9" vertex="1" connectable="0">
          <mxGeometry x="-0.2441" y="1" relative="1" as="geometry">
            <mxPoint y="5" as="offset" />
          </mxGeometry>
        </mxCell>
        <mxCell id="aSY6GiX8y2zgrVZKX64a-14" style="edgeStyle=orthogonalEdgeStyle;rounded=0;orthogonalLoop=1;jettySize=auto;html=1;entryX=0.5;entryY=0;entryDx=0;entryDy=0;" parent="1" source="aSY6GiX8y2zgrVZKX64a-4" target="aSY6GiX8y2zgrVZKX64a-11" edge="1">
          <mxGeometry relative="1" as="geometry" />
        </mxCell>
        <mxCell id="aSY6GiX8y2zgrVZKX64a-4" value="调用接口Image Quality&lt;br&gt;判断图片质量" style="rhombus;whiteSpace=wrap;html=1;" parent="1" vertex="1">
          <mxGeometry x="170" y="490" width="130" height="80" as="geometry" />
        </mxCell>
        <mxCell id="aSY6GiX8y2zgrVZKX64a-8" style="edgeStyle=orthogonalEdgeStyle;rounded=0;orthogonalLoop=1;jettySize=auto;html=1;entryX=0.5;entryY=0;entryDx=0;entryDy=0;" parent="1" source="aSY6GiX8y2zgrVZKX64a-5" target="aSY6GiX8y2zgrVZKX64a-4" edge="1">
          <mxGeometry relative="1" as="geometry" />
        </mxCell>
        <mxCell id="aSY6GiX8y2zgrVZKX64a-5" value="照片信息上传，产生font /back side Url" style="rounded=1;whiteSpace=wrap;html=1;" parent="1" vertex="1">
          <mxGeometry x="175" y="410" width="120" height="50" as="geometry" />
        </mxCell>
        <mxCell id="-PtaE-Mu1wmv-w4eBili-6" style="edgeStyle=orthogonalEdgeStyle;rounded=0;orthogonalLoop=1;jettySize=auto;html=1;entryX=0.507;entryY=-0.036;entryDx=0;entryDy=0;entryPerimeter=0;" parent="1" source="aSY6GiX8y2zgrVZKX64a-11" target="-PtaE-Mu1wmv-w4eBili-5" edge="1">
          <mxGeometry relative="1" as="geometry" />
        </mxCell>
        <mxCell id="aSY6GiX8y2zgrVZKX64a-11" value="调用接口ID Classification 判断是否为身份证" style="rounded=1;whiteSpace=wrap;html=1;" parent="1" vertex="1">
          <mxGeometry x="175" y="600" width="120" height="50" as="geometry" />
        </mxCell>
        <mxCell id="-PtaE-Mu1wmv-w4eBili-13" style="edgeStyle=orthogonalEdgeStyle;rounded=0;orthogonalLoop=1;jettySize=auto;html=1;entryX=1;entryY=0.5;entryDx=0;entryDy=0;" parent="1" source="aSY6GiX8y2zgrVZKX64a-13" target="aSY6GiX8y2zgrVZKX64a-1" edge="1">
          <mxGeometry relative="1" as="geometry">
            <Array as="points">
              <mxPoint x="520" y="920" />
              <mxPoint x="520" y="350" />
            </Array>
          </mxGeometry>
        </mxCell>
        <mxCell id="-PtaE-Mu1wmv-w4eBili-14" value="用户信息不正确&lt;br&gt;要求重拍" style="edgeLabel;html=1;align=center;verticalAlign=middle;resizable=0;points=[];" parent="-PtaE-Mu1wmv-w4eBili-13" vertex="1" connectable="0">
          <mxGeometry x="-0.8576" y="2" relative="1" as="geometry">
            <mxPoint as="offset" />
          </mxGeometry>
        </mxCell>
        <mxCell id="-PtaE-Mu1wmv-w4eBili-21" style="edgeStyle=orthogonalEdgeStyle;rounded=0;orthogonalLoop=1;jettySize=auto;html=1;entryX=0.5;entryY=0;entryDx=0;entryDy=0;" parent="1" source="aSY6GiX8y2zgrVZKX64a-13" target="-PtaE-Mu1wmv-w4eBili-15" edge="1">
          <mxGeometry relative="1" as="geometry">
            <Array as="points">
              <mxPoint x="234" y="1000" />
              <mxPoint x="550" y="1000" />
              <mxPoint x="550" y="130" />
              <mxPoint x="695" y="130" />
            </Array>
          </mxGeometry>
        </mxCell>
        <mxCell id="-PtaE-Mu1wmv-w4eBili-22" value="用户确认信息无误" style="edgeLabel;html=1;align=center;verticalAlign=middle;resizable=0;points=[];" parent="-PtaE-Mu1wmv-w4eBili-21" vertex="1" connectable="0">
          <mxGeometry x="-0.7484" y="2" relative="1" as="geometry">
            <mxPoint as="offset" />
          </mxGeometry>
        </mxCell>
        <mxCell id="aSY6GiX8y2zgrVZKX64a-13" value="用户是否确认信息？" style="rhombus;whiteSpace=wrap;html=1;" parent="1" vertex="1">
          <mxGeometry x="169" y="880" width="130" height="80" as="geometry" />
        </mxCell>
        <mxCell id="aSY6GiX8y2zgrVZKX64a-30" value="&lt;br&gt;&lt;br&gt;&lt;span style=&quot;color: rgb(0 , 0 , 0) ; font-family: &amp;#34;helvetica&amp;#34; ; font-size: 11px ; font-style: normal ; font-weight: 400 ; letter-spacing: normal ; text-align: center ; text-indent: 0px ; text-transform: none ; word-spacing: 0px ; background-color: rgb(255 , 255 , 255) ; display: inline ; float: none&quot;&gt;＞70%验证通过&lt;/span&gt;&lt;br style=&quot;color: rgb(0 , 0 , 0) ; font-family: &amp;#34;helvetica&amp;#34; ; font-size: 11px ; font-style: normal ; font-weight: 400 ; letter-spacing: normal ; text-align: center ; text-indent: 0px ; text-transform: none ; word-spacing: 0px&quot;&gt;&lt;br&gt;" style="edgeStyle=orthogonalEdgeStyle;rounded=0;orthogonalLoop=1;jettySize=auto;html=1;entryX=0.5;entryY=0;entryDx=0;entryDy=0;" parent="1" target="aSY6GiX8y2zgrVZKX64a-29" edge="1">
          <mxGeometry x="0.2" y="75" relative="1" as="geometry">
            <mxPoint x="694.5" y="470" as="sourcePoint" />
            <mxPoint as="offset" />
          </mxGeometry>
        </mxCell>
        <mxCell id="aSY6GiX8y2zgrVZKX64a-32" value="用户不通过" style="edgeStyle=orthogonalEdgeStyle;rounded=0;orthogonalLoop=1;jettySize=auto;html=1;entryX=0;entryY=0.5;entryDx=0;entryDy=0;" parent="1" source="aSY6GiX8y2zgrVZKX64a-29" target="aSY6GiX8y2zgrVZKX64a-31" edge="1">
          <mxGeometry relative="1" as="geometry">
            <mxPoint x="874.5" y="560" as="targetPoint" />
          </mxGeometry>
        </mxCell>
        <mxCell id="aSY6GiX8y2zgrVZKX64a-35" value="用户通过" style="edgeStyle=orthogonalEdgeStyle;rounded=0;orthogonalLoop=1;jettySize=auto;html=1;" parent="1" source="aSY6GiX8y2zgrVZKX64a-29" target="aSY6GiX8y2zgrVZKX64a-34" edge="1">
          <mxGeometry relative="1" as="geometry" />
        </mxCell>
        <mxCell id="aSY6GiX8y2zgrVZKX64a-29" value="AML black list&lt;br&gt;screening" style="rhombus;whiteSpace=wrap;html=1;" parent="1" vertex="1">
          <mxGeometry x="632" y="520" width="125" height="80" as="geometry" />
        </mxCell>
        <mxCell id="aSY6GiX8y2zgrVZKX64a-31" value="报错，终止流程" style="ellipse;whiteSpace=wrap;html=1;" parent="1" vertex="1">
          <mxGeometry x="870" y="525" width="120" height="70" as="geometry" />
        </mxCell>
        <mxCell id="aSY6GiX8y2zgrVZKX64a-37" style="edgeStyle=orthogonalEdgeStyle;rounded=0;orthogonalLoop=1;jettySize=auto;html=1;" parent="1" source="aSY6GiX8y2zgrVZKX64a-34" target="aSY6GiX8y2zgrVZKX64a-36" edge="1">
          <mxGeometry relative="1" as="geometry" />
        </mxCell>
        <mxCell id="aSY6GiX8y2zgrVZKX64a-34" value="设置支付密码" style="rounded=1;whiteSpace=wrap;html=1;" parent="1" vertex="1">
          <mxGeometry x="634.5" y="640" width="120" height="50" as="geometry" />
        </mxCell>
        <mxCell id="aSY6GiX8y2zgrVZKX64a-39" style="edgeStyle=orthogonalEdgeStyle;rounded=0;orthogonalLoop=1;jettySize=auto;html=1;entryX=0.5;entryY=0;entryDx=0;entryDy=0;" parent="1" source="aSY6GiX8y2zgrVZKX64a-36" target="aSY6GiX8y2zgrVZKX64a-38" edge="1">
          <mxGeometry relative="1" as="geometry" />
        </mxCell>
        <mxCell id="aSY6GiX8y2zgrVZKX64a-36" value="向FAB申请" style="rounded=1;whiteSpace=wrap;html=1;" parent="1" vertex="1">
          <mxGeometry x="639.5" y="730" width="110" height="30" as="geometry" />
        </mxCell>
        <mxCell id="aSY6GiX8y2zgrVZKX64a-43" value="注册成功" style="edgeStyle=orthogonalEdgeStyle;rounded=0;orthogonalLoop=1;jettySize=auto;html=1;entryX=0.5;entryY=0;entryDx=0;entryDy=0;" parent="1" source="aSY6GiX8y2zgrVZKX64a-38" target="aSY6GiX8y2zgrVZKX64a-42" edge="1">
          <mxGeometry relative="1" as="geometry" />
        </mxCell>
        <mxCell id="aSY6GiX8y2zgrVZKX64a-44" style="edgeStyle=orthogonalEdgeStyle;rounded=0;orthogonalLoop=1;jettySize=auto;html=1;entryX=0.5;entryY=1;entryDx=0;entryDy=0;" parent="1" source="aSY6GiX8y2zgrVZKX64a-38" target="aSY6GiX8y2zgrVZKX64a-31" edge="1">
          <mxGeometry relative="1" as="geometry">
            <mxPoint x="934.5" y="595" as="targetPoint" />
          </mxGeometry>
        </mxCell>
        <mxCell id="aSY6GiX8y2zgrVZKX64a-45" value="注册不成功" style="edgeLabel;html=1;align=center;verticalAlign=middle;resizable=0;points=[];" parent="aSY6GiX8y2zgrVZKX64a-44" vertex="1" connectable="0">
          <mxGeometry x="-0.8284" y="-1" relative="1" as="geometry">
            <mxPoint x="44" as="offset" />
          </mxGeometry>
        </mxCell>
        <mxCell id="aSY6GiX8y2zgrVZKX64a-38" value="FAB注册成功" style="rhombus;whiteSpace=wrap;html=1;" parent="1" vertex="1">
          <mxGeometry x="644.5" y="799" width="100" height="51" as="geometry" />
        </mxCell>
        <mxCell id="aSY6GiX8y2zgrVZKX64a-42" value="KYC通过" style="ellipse;whiteSpace=wrap;html=1;" parent="1" vertex="1">
          <mxGeometry x="656" y="880" width="77" height="50" as="geometry" />
        </mxCell>
        <mxCell id="-PtaE-Mu1wmv-w4eBili-2" value="使用login接口&lt;br&gt;获取token、userId" style="rounded=1;whiteSpace=wrap;html=1;" parent="1" vertex="1">
          <mxGeometry x="175" y="210" width="120" height="60" as="geometry" />
        </mxCell>
        <mxCell id="-PtaE-Mu1wmv-w4eBili-3" value="" style="edgeStyle=orthogonalEdgeStyle;rounded=0;orthogonalLoop=1;jettySize=auto;html=1;endArrow=none;" parent="1" source="aSY6GiX8y2zgrVZKX64a-2" target="-PtaE-Mu1wmv-w4eBili-2" edge="1">
          <mxGeometry relative="1" as="geometry">
            <mxPoint x="250.00000000000023" y="100.00000000000023" as="sourcePoint" />
            <mxPoint x="235.00000000000023" y="320" as="targetPoint" />
          </mxGeometry>
        </mxCell>
        <mxCell id="-PtaE-Mu1wmv-w4eBili-4" value="身份证正反两面上传地址:&lt;a href=&quot;https://sandbox-preproduction.signzy.tech/foreignId-classification&quot;&gt;https://sandbox-preproduction.signzy.tech/foreignId-classification&lt;/a&gt;" style="shape=document;whiteSpace=wrap;html=1;boundedLbl=1;align=left;" parent="1" vertex="1">
          <mxGeometry x="-70" y="320" width="200" height="80" as="geometry" />
        </mxCell>
        <mxCell id="-PtaE-Mu1wmv-w4eBili-7" style="edgeStyle=orthogonalEdgeStyle;rounded=0;orthogonalLoop=1;jettySize=auto;html=1;entryX=1;entryY=0.5;entryDx=0;entryDy=0;" parent="1" source="-PtaE-Mu1wmv-w4eBili-5" target="aSY6GiX8y2zgrVZKX64a-1" edge="1">
          <mxGeometry relative="1" as="geometry">
            <Array as="points">
              <mxPoint x="440" y="720" />
              <mxPoint x="440" y="350" />
            </Array>
          </mxGeometry>
        </mxCell>
        <mxCell id="-PtaE-Mu1wmv-w4eBili-8" value="ID classification不通过&lt;br&gt;用户可以退出或者重新输入" style="edgeLabel;html=1;align=center;verticalAlign=middle;resizable=0;points=[];" parent="-PtaE-Mu1wmv-w4eBili-7" vertex="1" connectable="0">
          <mxGeometry x="-0.3249" relative="1" as="geometry">
            <mxPoint as="offset" />
          </mxGeometry>
        </mxCell>
        <mxCell id="-PtaE-Mu1wmv-w4eBili-11" value="通过" style="edgeStyle=orthogonalEdgeStyle;rounded=0;orthogonalLoop=1;jettySize=auto;html=1;entryX=0.5;entryY=0;entryDx=0;entryDy=0;" parent="1" source="-PtaE-Mu1wmv-w4eBili-5" target="-PtaE-Mu1wmv-w4eBili-10" edge="1">
          <mxGeometry relative="1" as="geometry" />
        </mxCell>
        <mxCell id="-PtaE-Mu1wmv-w4eBili-5" value="判断idType、CountryCode是否为阿联酋？" style="rhombus;whiteSpace=wrap;html=1;align=center;" parent="1" vertex="1">
          <mxGeometry x="154" y="680" width="160" height="80" as="geometry" />
        </mxCell>
        <mxCell id="-PtaE-Mu1wmv-w4eBili-12" style="edgeStyle=orthogonalEdgeStyle;rounded=0;orthogonalLoop=1;jettySize=auto;html=1;entryX=0.5;entryY=0;entryDx=0;entryDy=0;" parent="1" source="-PtaE-Mu1wmv-w4eBili-10" target="aSY6GiX8y2zgrVZKX64a-13" edge="1">
          <mxGeometry relative="1" as="geometry" />
        </mxCell>
        <mxCell id="-PtaE-Mu1wmv-w4eBili-10" value="调用EID Extraction 提取信息、展示页面（name、DoB等）" style="rounded=1;whiteSpace=wrap;html=1;align=center;" parent="1" vertex="1">
          <mxGeometry x="174" y="800" width="120" height="60" as="geometry" />
        </mxCell>
        <mxCell id="-PtaE-Mu1wmv-w4eBili-18" style="edgeStyle=orthogonalEdgeStyle;rounded=0;orthogonalLoop=1;jettySize=auto;html=1;" parent="1" source="-PtaE-Mu1wmv-w4eBili-15" target="-PtaE-Mu1wmv-w4eBili-16" edge="1">
          <mxGeometry relative="1" as="geometry" />
        </mxCell>
        <mxCell id="-PtaE-Mu1wmv-w4eBili-15" value="调用video verification&lt;br&gt;请求视频验证url" style="rounded=1;whiteSpace=wrap;html=1;" parent="1" vertex="1">
          <mxGeometry x="635" y="150" width="120" height="50" as="geometry" />
        </mxCell>
        <mxCell id="-PtaE-Mu1wmv-w4eBili-19" style="edgeStyle=orthogonalEdgeStyle;rounded=0;orthogonalLoop=1;jettySize=auto;html=1;entryX=0.5;entryY=0;entryDx=0;entryDy=0;" parent="1" source="-PtaE-Mu1wmv-w4eBili-16" target="-PtaE-Mu1wmv-w4eBili-17" edge="1">
          <mxGeometry relative="1" as="geometry" />
        </mxCell>
        <mxCell id="-PtaE-Mu1wmv-w4eBili-16" value="用户录入视频" style="rounded=1;whiteSpace=wrap;html=1;align=center;" parent="1" vertex="1">
          <mxGeometry x="640" y="230" width="110" height="50" as="geometry" />
        </mxCell>
        <mxCell id="-PtaE-Mu1wmv-w4eBili-23" style="edgeStyle=orthogonalEdgeStyle;rounded=0;orthogonalLoop=1;jettySize=auto;html=1;entryX=0.5;entryY=0;entryDx=0;entryDy=0;" parent="1" source="-PtaE-Mu1wmv-w4eBili-17" target="-PtaE-Mu1wmv-w4eBili-20" edge="1">
          <mxGeometry relative="1" as="geometry" />
        </mxCell>
        <mxCell id="-PtaE-Mu1wmv-w4eBili-17" value="调用video verification inquiry接口，获得活动参数 matchPercentage" style="rounded=1;whiteSpace=wrap;html=1;align=center;" parent="1" vertex="1">
          <mxGeometry x="630" y="310" width="130" height="50" as="geometry" />
        </mxCell>
        <mxCell id="-PtaE-Mu1wmv-w4eBili-24" style="edgeStyle=orthogonalEdgeStyle;rounded=0;orthogonalLoop=1;jettySize=auto;html=1;entryX=1;entryY=0.5;entryDx=0;entryDy=0;" parent="1" source="-PtaE-Mu1wmv-w4eBili-20" target="-PtaE-Mu1wmv-w4eBili-15" edge="1">
          <mxGeometry relative="1" as="geometry">
            <Array as="points">
              <mxPoint x="880" y="430" />
              <mxPoint x="880" y="175" />
            </Array>
          </mxGeometry>
        </mxCell>
        <mxCell id="-PtaE-Mu1wmv-w4eBili-25" value="≤70%验证不通过&lt;br&gt;用户可以选择重新拍摄" style="edgeLabel;html=1;align=center;verticalAlign=middle;resizable=0;points=[];" parent="-PtaE-Mu1wmv-w4eBili-24" vertex="1" connectable="0">
          <mxGeometry x="0.0507" y="-3" relative="1" as="geometry">
            <mxPoint as="offset" />
          </mxGeometry>
        </mxCell>
        <mxCell id="-PtaE-Mu1wmv-w4eBili-20" value="matchPercentage是否＞70%" style="rhombus;whiteSpace=wrap;html=1;" parent="1" vertex="1">
          <mxGeometry x="630" y="390" width="130" height="80" as="geometry" />
        </mxCell>
      </root>
    </mxGraphModel>
  </diagram>
</mxfile>
